<svg xmlns="http://www.w3.org/2000/svg" xmlns:xlink="http://www.w3.org/1999/xlink" width="148.9mm" height="180.6mm" viewBox="0 0 422 512">
<defs><marker id="fin-n" viewBox="0 0 10 10" refX="9.5" refY="5" markerWidth="5.5" markerHeight="5.5" markerUnits="userSpaceOnUse" orient="auto"><path d="M0,0.8 L10,5 L0,9.2 z" fill="#2B2B2B"/></marker><marker id="ini-n" viewBox="0 0 10 10" refX="0.5" refY="5" markerWidth="5.5" markerHeight="5.5" markerUnits="userSpaceOnUse" orient="auto"><path d="M10,0.8 L0,5 L10,9.2 z" fill="#2B2B2B"/></marker><marker id="fin-r" viewBox="0 0 10 10" refX="9.5" refY="5" markerWidth="5.5" markerHeight="5.5" markerUnits="userSpaceOnUse" orient="auto"><path d="M0,0.8 L10,5 L0,9.2 z" fill="#C0392B"/></marker><marker id="ini-r" viewBox="0 0 10 10" refX="0.5" refY="5" markerWidth="5.5" markerHeight="5.5" markerUnits="userSpaceOnUse" orient="auto"><path d="M10,0.8 L0,5 L10,9.2 z" fill="#C0392B"/></marker><symbol id="ic-az-aks" viewBox="0 0 18 18"><defs><linearGradient id="az-aks-b70c9cf1-bab8-47e0-bbdb-ce1cd664d268" x1="2.94" y1="3.74" x2="8.67" y2="3.74" gradientUnits="userSpaceOnUse"><stop offset="0" stop-color="#b77af4" /><stop offset="1" stop-color="#773adc" /></linearGradient><linearGradient id="az-aks-beb69953-bd96-4515-8843-ac12546af936" x1="9.13" y1="3.79" x2="14.85" y2="3.79" gradientUnits="userSpaceOnUse"><stop offset="0" stop-color="#b77af4" /><stop offset="1" stop-color="#773adc" /></linearGradient><linearGradient id="az-aks-a39c76e8-547e-4eb4-bc25-d81c0f8cda62" x1="0.01" y1="9.12" x2="5.73" y2="9.12" gradientUnits="userSpaceOnUse"><stop offset="0" stop-color="#b77af4" /><stop offset="1" stop-color="#773adc" /></linearGradient><linearGradient id="az-aks-f0a2a491-17dc-4bb8-bbfc-ee58a5cf47da" x1="6.18" y1="9.08" x2="11.9" y2="9.08" gradientUnits="userSpaceOnUse"><stop offset="0" stop-color="#b77af4" /><stop offset="1" stop-color="#773adc" /></linearGradient><linearGradient id="az-aks-efc6a56d-8585-417d-931a-1dac2114ccd0" x1="12.35" y1="9.13" x2="18.08" y2="9.13" gradientUnits="userSpaceOnUse"><stop offset="0" stop-color="#b77af4" /><stop offset="1" stop-color="#773adc" /></linearGradient><linearGradient id="az-aks-e399aa93-341f-4df2-9c02-603b82b484c2" x1="2.87" y1="14.56" x2="8.6" y2="14.56" gradientUnits="userSpaceOnUse"><stop offset="0" stop-color="#b77af4" /><stop offset="1" stop-color="#773adc" /></linearGradient><linearGradient id="az-aks-a152bba0-ba2b-483a-b8c1-0ae7de355990" x1="9.05" y1="14.6" x2="14.78" y2="14.6" gradientUnits="userSpaceOnUse"><stop offset="0" stop-color="#b77af4" /><stop offset="1" stop-color="#773adc" /></linearGradient></defs><polygon points="5.8 1.22 2.94 1.75 2.94 5.65 5.8 6.26 8.67 5.11 8.67 2.2 5.8 1.22" fill="url(#az-aks-b70c9cf1-bab8-47e0-bbdb-ce1cd664d268)" /><path d="M5.91,6.2,8.53,5.14A.2.2,0,0,0,8.65,5V2.36a.21.21,0,0,0-.13-.18l-2.65-.9H5.75l-2.6.48A.2.2,0,0,0,3,1.94V5.47a.19.19,0,0,0,.15.19l2.63.55A.32.32,0,0,0,5.91,6.2Z" fill="none" /><path d="M2.94,1.75v3.9l2.89.61v-5Zm1.22,3.6-.81-.16v-3l.81-.13Zm1.26.23-.93-.15V2l.93-.16Z" fill="#341a6e" /><polygon points="11.99 1.27 9.13 1.8 9.13 5.7 11.99 6.31 14.85 5.15 14.85 2.25 11.99 1.27" fill="url(#az-aks-beb69953-bd96-4515-8843-ac12546af936)" /><path d="M9.13,1.8V5.7L12,6.31v-5Zm1.21,3.6-.81-.16v-3l.81-.13Zm1.26.23-.93-.15V2.05l.93-.17Z" fill="#341a6e" /><polygon points="2.87 6.6 0.01 7.13 0.01 11.03 2.87 11.64 5.74 10.49 5.74 7.58 2.87 6.6" fill="url(#az-aks-a39c76e8-547e-4eb4-bc25-d81c0f8cda62)" /><path d="M0,7.13V11l2.89.61v-5Zm1.21,3.61-.81-.17v-3l.81-.14ZM2.48,11l-.93-.15V7.38l.93-.16Z" fill="#341a6e" /><polygon points="9.04 6.56 6.18 7.09 6.18 10.99 9.04 11.61 11.9 10.45 11.9 7.54 9.04 6.56" fill="url(#az-aks-f0a2a491-17dc-4bb8-bbfc-ee58a5cf47da)" /><path d="M6.18,7.09V11l2.88.61v-5ZM7.39,10.7l-.81-.17v-3l.81-.14Zm1.26.22-.93-.15V7.34l.93-.16Z" fill="#341a6e" /><polygon points="15.21 6.61 12.35 7.14 12.35 11.04 15.21 11.65 18.08 10.5 18.08 7.59 15.21 6.61" fill="url(#az-aks-efc6a56d-8585-417d-931a-1dac2114ccd0)" /><path d="M12.35,7.14V11l2.89.61v-5Zm1.22,3.61-.81-.17v-3l.81-.14Zm1.26.22-.93-.15V7.39l.93-.16Z" fill="#341a6e" /><polygon points="5.73 12.04 2.87 12.56 2.87 16.46 5.73 17.08 8.6 15.92 8.6 13.02 5.73 12.04" fill="url(#az-aks-e399aa93-341f-4df2-9c02-603b82b484c2)" /><path d="M5.84,17,8.45,16a.18.18,0,0,0,.12-.18v-2.6A.2.2,0,0,0,8.44,13L5.8,12.1a.17.17,0,0,0-.12,0l-2.6.47a.19.19,0,0,0-.16.19v3.54a.19.19,0,0,0,.15.19L5.7,17A.23.23,0,0,0,5.84,17Z" fill="none" /><path d="M2.87,12.56v3.9l2.89.62V12Zm1.22,3.61L3.28,16V13l.81-.14Zm1.26.23-.93-.15V12.81l.93-.16Z" fill="#341a6e" /><polygon points="11.91 12.08 9.05 12.61 9.05 16.51 11.91 17.12 14.78 15.97 14.78 13.06 11.91 12.08" fill="url(#az-aks-a152bba0-ba2b-483a-b8c1-0ae7de355990)" /><path d="M9.05,12.61v3.9l2.89.61v-5Zm1.22,3.61-.81-.17v-3l.81-.14Zm1.26.22-.93-.15V12.86l.93-.16Z" fill="#341a6e" /></symbol><symbol id="ic-az-eventhubs" viewBox="0 0 18 18"><g><g id="az-eventhubs-a53a4de8-371c-49da-a662-c4631299fc03"><path d="M10.83,8.42a.26.26,0,0,1-.24.27H8.5a.26.26,0,0,1-.27-.24V6.89a.26.26,0,0,1,.24-.27h2.09a.26.26,0,0,1,.27.24V8.42Z" fill="#76bc2d" /><path d="M14.54,10a.26.26,0,0,1-.24.27H12.21a.26.26,0,0,1-.27-.24V8.48a.26.26,0,0,1,.24-.27h2.09a.26.26,0,0,1,.27.24V10Z" fill="#76bc2d" /><path d="M10.83,11.6a.26.26,0,0,1-.24.27H8.5a.26.26,0,0,1-.27-.24V10.07a.26.26,0,0,1,.24-.27h2.09a.26.26,0,0,1,.27.24V11.6Z" fill="#76bc2d" /><path d="M7.12,6.84a.25.25,0,0,1-.23.26H4.74a.26.26,0,0,1-.27-.23V5.25A.26.26,0,0,1,4.71,5H6.8c.22,0,.32.11.32.27Z" fill="#86d633" /><path d="M7.12,10a.25.25,0,0,1-.23.27H4.74A.26.26,0,0,1,4.47,10V8.42a.26.26,0,0,1,.24-.26H6.8c.22,0,.32.11.32.26Z" fill="#76bc2d" /><path d="M7.12,13.19a.25.25,0,0,1-.23.27H4.74a.26.26,0,0,1-.27-.24V11.6a.25.25,0,0,1,.24-.26H6.8c.22,0,.32.1.32.26Z" fill="#76bc2d" /><g><path d="M1.07,1.51H2.36a0,0,0,0,1,0,0v3.6a.29.29,0,0,1-.29.29H.79A.29.29,0,0,1,.5,5.11v-3A.57.57,0,0,1,1.07,1.51Z" fill="#999" /><path d="M1.07,1.51H2.36a0,0,0,0,1,0,0v3.6a.29.29,0,0,1-.29.29H.79A.29.29,0,0,1,.5,5.11v-3A.57.57,0,0,1,1.07,1.51Z" fill="#999" opacity="0.5" /></g><g><path d="M15.64,1.51h1.29a.57.57,0,0,1,.57.57v3a.29.29,0,0,1-.29.29H15.92a.29.29,0,0,1-.29-.29V1.51A0,0,0,0,1,15.64,1.51Z" fill="#999" /><path d="M15.64,1.51h1.29a.57.57,0,0,1,.57.57v3a.29.29,0,0,1-.29.29H15.92a.29.29,0,0,1-.29-.29V1.51A0,0,0,0,1,15.64,1.51Z" fill="#999" opacity="0.5" /></g><path d="M8.66-6.08H9.91a0,0,0,0,1,0,0v17a0,0,0,0,1,0,0H8.66a.57.57,0,0,1-.57-.57V-5.52A.57.57,0,0,1,8.66-6.08Z" transform="translate(11.42 -6.58) rotate(90)" fill="#949494" /><g><path d="M.79,12.76H2.08a.29.29,0,0,1,.29.29v3.6a0,0,0,0,1,0,0H1.07a.57.57,0,0,1-.57-.57V13A.29.29,0,0,1,.79,12.76Z" fill="#999" /><path d="M.79,12.76H2.08a.29.29,0,0,1,.29.29v3.6a0,0,0,0,1,0,0H1.07a.57.57,0,0,1-.57-.57V13A.29.29,0,0,1,.79,12.76Z" fill="#999" opacity="0.5" /></g><g><path d="M15.92,12.76h1.29a.29.29,0,0,1,.29.29v3a.57.57,0,0,1-.57.57H15.64a0,0,0,0,1,0,0V13A.29.29,0,0,1,15.92,12.76Z" fill="#999" /><path d="M15.92,12.76h1.29a.29.29,0,0,1,.29.29v3a.57.57,0,0,1-.57.57H15.64a0,0,0,0,1,0,0V13A.29.29,0,0,1,15.92,12.76Z" fill="#999" opacity="0.5" /></g><path d="M8.66,7.24H9.91a0,0,0,0,1,0,0v17a0,0,0,0,1,0,0H8.66a.57.57,0,0,1-.57-.57V7.81A.57.57,0,0,1,8.66,7.24Z" transform="translate(-6.74 24.74) rotate(-90)" fill="#949494" /></g></g></symbol><symbol id="ic-az-iothub" viewBox="0 0 18 18"><defs><linearGradient id="az-iothub-faaeb69b-3035-4577-9cb1-ddd3fba791e3" x1="9.13" y1="18.81" x2="8.85" y2="-8.1" gradientUnits="userSpaceOnUse"><stop offset="0" stop-color="#198ab3" /><stop offset="0" stop-color="#198ab3" /><stop offset="0.09" stop-color="#22a5cb" /><stop offset="0.19" stop-color="#29bade" /><stop offset="0.29" stop-color="#2ec9eb" /><stop offset="0.42" stop-color="#31d1f3" /><stop offset="0.62" stop-color="#32d4f5" /></linearGradient></defs><circle id="az-iothub-fa3a22e9-e4e8-46a1-bc09-f9532747c739" cx="11.4" cy="8.44" r="1.97" fill="#fff" /><circle id="az-iothub-eb214416-6791-4934-ac0c-35afaa829f6e" cx="14.7" cy="14.3" r="1.55" fill="#fff" /><circle id="az-iothub-a4424413-b91f-48da-aedd-39e3a978b430" cx="8.57" cy="13.24" r="1.33" fill="#fff" /><circle id="az-iothub-f7ecfc1a-3268-471b-9464-57023bfc9cc4" cx="7.61" cy="3.11" r="1.65" fill="#fff" /><circle id="az-iothub-b4388938-ad80-41b4-b729-5c21e3eab320" cx="3.19" cy="9.19" r="1.33" fill="#fff" /><polygon points="15.06 13.99 11.73 8.16 11.4 8.35 11.67 8.15 7.9 2.79 7.21 3.29 10.55 8.04 3.15 8.65 3.22 9.51 10.55 8.9 8.12 12.94 8.85 13.38 11.35 9.22 14.32 14.41 15.06 13.99" fill="#949494" /><g><path d="M17.53,1.23h0A.73.73,0,0,0,16.8.5H13a.36.36,0,0,0-.36.36V2.27a.36.36,0,0,0,.36.36h2.35v2.3a.38.38,0,0,0,.37.37h1.4a.38.38,0,0,0,.37-.37V1.23Z" fill="#949494" /><path d="M5,15.37H2.61v-2.3a.38.38,0,0,0-.37-.37H.84a.38.38,0,0,0-.37.37v3.7h0a.73.73,0,0,0,.73.72H5a.36.36,0,0,0,.36-.36V15.73A.36.36,0,0,0,5,15.37Z" fill="#949494" /></g><path d="M11.4,6.49a2,2,0,1,1-2,1.95A2,2,0,0,1,11.4,6.49ZM6,3.11A1.66,1.66,0,1,0,7.62,1.46,1.65,1.65,0,0,0,6,3.11ZM1.86,9.18A1.33,1.33,0,1,0,3.19,7.85,1.33,1.33,0,0,0,1.86,9.18Zm5.38,4.05A1.34,1.34,0,1,0,8.58,11.9,1.33,1.33,0,0,0,7.24,13.23Zm5.92,1.07a1.55,1.55,0,1,0,1.55-1.54A1.53,1.53,0,0,0,13.16,14.3Z" fill="url(#az-iothub-faaeb69b-3035-4577-9cb1-ddd3fba791e3)" /></symbol><symbol id="ic-az-postgres" viewBox="0 0 18 18"><defs><linearGradient id="az-postgres-a28dee20-4c71-46b5-b957-804c67da725a" x1="2.44" y1="10.67" x2="15.27" y2="10.67" gradientTransform="translate(0.14 -0.5) rotate(-0.01)" gradientUnits="userSpaceOnUse"><stop offset="0" stop-color="#005ba1" /><stop offset="0.07" stop-color="#0060a9" /><stop offset="0.36" stop-color="#0071c8" /><stop offset="0.52" stop-color="#0078d4" /><stop offset="0.64" stop-color="#0074cd" /><stop offset="0.82" stop-color="#006abb" /><stop offset="1" stop-color="#005ba1" /></linearGradient></defs><path d="M9,5.14c-3.54,0-6.41-1-6.41-2.32V15.18c0,1.27,2.82,2.3,6.32,2.32H9c3.54,0,6.41-1,6.41-2.32V2.82C15.41,4.1,12.54,5.14,9,5.14Z" fill="url(#az-postgres-a28dee20-4c71-46b5-b957-804c67da725a)" /><path d="M15.41,2.82c0,1.28-2.87,2.32-6.41,2.32s-6.41-1-6.41-2.32S5.46.5,9,.5s6.41,1,6.41,2.32" fill="#e8e8e8" /><path d="M13.91,2.63c0,.82-2.2,1.48-4.91,1.48S4.08,3.45,4.08,2.64,6.28,1.16,9,1.16s4.91.66,4.91,1.47" fill="#50e6ff" /><path d="M9,3a11.65,11.65,0,0,0-3.9.57A11.53,11.53,0,0,0,9,4.11a11.47,11.47,0,0,0,3.89-.58A11.93,11.93,0,0,0,9,3Z" fill="#198ab3" /><path d="M12,9c0,.08,0,.24,0,.42a5.12,5.12,0,0,0-.08.63c0,.12,0,.3.05.46s0,.27,0,.36a1.68,1.68,0,0,1-.25.86.43.43,0,0,0,0,.07l.1.12a10.55,10.55,0,0,0,1.06-2.38h0c.28-.95.31-1.63.09-1.92a2.58,2.58,0,0,0-2.68-.86,3.29,3.29,0,0,1,.91.67A2.28,2.28,0,0,1,12,9Zm-.31.08a1.15,1.15,0,0,0-.79.09c-.29.18-.2.55,0,1a7.77,7.77,0,0,0,.35.85l.09.16h0c.05.08.08.15.11.2l.08.13a1.28,1.28,0,0,0,.18-.65,2.86,2.86,0,0,0,0-.33c0-.17,0-.36-.05-.49a6.1,6.1,0,0,1,.08-.69C11.71,9.24,11.72,9.13,11.73,9.05Zm-.3.41a.4.4,0,0,1-.18.1h0a.33.33,0,0,1-.14,0A.23.23,0,0,1,11,9.4h0c0-.07.11-.13.24-.15h.19s.09,0,.09.08A.2.2,0,0,1,11.43,9.46Zm-4.69.89c0-.07,0-.13,0-.17a1,1,0,0,0,0-.17,5.55,5.55,0,0,1,0-1A5.22,5.22,0,0,1,7,7.94,2.41,2.41,0,0,1,7.58,7,4.78,4.78,0,0,0,6.23,6.8a1.87,1.87,0,0,0-1.1.3A2,2,0,0,0,4.5,8.92,12.27,12.27,0,0,0,5,11.16c.34,1.14.73,1.84,1.07,1.95h0c.15.05.31,0,.47-.21.28-.34.54-.63.69-.8A1.88,1.88,0,0,1,6.74,10.35Zm.26.4a2.18,2.18,0,0,0,.06.56,1.5,1.5,0,0,0,.26.44,1.07,1.07,0,0,0,.35.25,1.09,1.09,0,0,0,.39.08c0-.17.14-.38.23-.6a4.35,4.35,0,0,0,.21-.59,6.61,6.61,0,0,0,0-1.11c0-.09,0-.19-.06-.3a.45.45,0,0,0-.12-.27l0,0A.66.66,0,0,0,8,9.08H7.8a1.56,1.56,0,0,0-.48.14A2,2,0,0,0,7,9.41v.11c0,.2,0,.41,0,.61v0a.86.86,0,0,1,0,.15l0,.39H7Zm.66-1.34,0,0a.46.46,0,0,1,.28,0,.6.6,0,0,1,.19.06c.09,0,.1.11.09.14h0a.37.37,0,0,1-.12.13A.3.3,0,0,1,8,9.73h0a.34.34,0,0,1-.28-.28Zm.74,3a.23.23,0,0,0-.13.06l-.14.17c-.17.21-.24.28-.73.38a.52.52,0,0,0-.26.1.58.58,0,0,0,.24.11,1.18,1.18,0,0,0,.72,0A1.7,1.7,0,0,0,8.45,13a.61.61,0,0,0,.2-.31.36.36,0,0,0-.1-.28A.15.15,0,0,0,8.4,12.39Zm4.61,0a1.63,1.63,0,0,1-1.13,0,.22.22,0,0,0-.14,0,.3.3,0,0,0-.17.14,1.09,1.09,0,0,0,0,.31,1.8,1.8,0,0,0,1.1-.1,1.36,1.36,0,0,0,.48-.34Zm-2.4-2.14c-.14-.41-.34-1,.18-1.36a1.35,1.35,0,0,1,.89-.15A3.18,3.18,0,0,0,11,7.64l-.1-.1-.06-.06h0a.34.34,0,0,0-.06-.06l0,0,0,0A2.34,2.34,0,0,0,10.11,7,2.63,2.63,0,0,0,9,6.78a1.52,1.52,0,0,0-.7.11A1.77,1.77,0,0,0,8,7a2.1,2.1,0,0,0-.74,1,5.84,5.84,0,0,0-.21,1,1.66,1.66,0,0,1,1-.23.84.84,0,0,1,.77.91,7.26,7.26,0,0,1,0,1.27,3.87,3.87,0,0,1-.23.63c-.06.17-.14.35-.18.49a.5.5,0,0,1,.38.14.66.66,0,0,1,.19.53H9c0,.08,0,.16,0,.24a6.55,6.55,0,0,0,.24,2.44.54.54,0,0,0,.24.21.6.6,0,0,0,.31.1,1.3,1.3,0,0,0,1-.34,1.05,1.05,0,0,0,.29-.66c.07-.45.22-1.7.24-2h0a.72.72,0,0,1,.09-.44.63.63,0,0,1,.27-.24A5.36,5.36,0,0,1,10.61,10.24Z" fill="#f2f2f2" /></symbol><symbol id="ic-az-subscription" viewBox="0 0 18 18"><defs><radialGradient id="az-subscription-a445c717-9d75-44c7-ba6b-0d8f2383e560" cx="-36.63" cy="17.12" r="11.18" gradientTransform="translate(41.88 -7.4) scale(0.94 0.94)" gradientUnits="userSpaceOnUse"><stop offset="0.27" stop-color="#ffd70f" /><stop offset="0.49" stop-color="#ffcb12" /><stop offset="0.88" stop-color="#feac19" /><stop offset="1" stop-color="#fea11b" /></radialGradient></defs><path id="az-subscription-e3d1e58c-f78e-4fb5-9857-0c9331da9979" d="M13.56,7.19a2.07,2.07,0,0,0,0-2.93h0L10,.69a2.06,2.06,0,0,0-2.92,0h0L3.52,4.26a2.09,2.09,0,0,0,0,2.93l3,3a.61.61,0,0,1,.17.41v5.52a.7.7,0,0,0,.2.5l1.35,1.35a.45.45,0,0,0,.66,0l1.31-1.31h0l.77-.77a.26.26,0,0,0,0-.38l-.55-.56a.29.29,0,0,1,0-.42l.55-.56a.26.26,0,0,0,0-.38L10.4,13a.28.28,0,0,1,0-.41L11,12a.26.26,0,0,0,0-.38l-.77-.78v-.28Zm-5-5.64A1.18,1.18,0,1,1,7.37,2.73,1.17,1.17,0,0,1,8.54,1.55Z" fill="url(#az-subscription-a445c717-9d75-44c7-ba6b-0d8f2383e560)" /><path id="az-subscription-a21a8f7a-61cc-4035-8449-e5c8fe4d4d5e" d="M7.62,16.21h0A.25.25,0,0,0,8,16V11.55a.27.27,0,0,0-.11-.22h0a.25.25,0,0,0-.39.22V16A.27.27,0,0,0,7.62,16.21Z" fill="#ff9300" opacity="0.75" /><rect id="az-subscription-ecd3189c-fb1e-4a0e-a2b6-ba2f11dda484" x="5.69" y="5.45" width="5.86" height="0.69" rx="0.32" fill="#ff9300" opacity="0.75" /><rect id="az-subscription-a1949a3c-4818-4bd1-b236-0d970b92fc62" x="5.69" y="6.57" width="5.86" height="0.69" rx="0.32" fill="#ff9300" opacity="0.75" /></symbol><symbol id="ic-dev-git" viewBox="0 0 128 128"><path fill="#F34F29" d="M124.737 58.378L69.621 3.264c-3.172-3.174-8.32-3.174-11.497 0L46.68 14.71l14.518 14.518c3.375-1.139 7.243-.375 9.932 2.314 2.703 2.706 3.461 6.607 2.294 9.993l13.992 13.993c3.385-1.167 7.292-.413 9.994 2.295 3.78 3.777 3.78 9.9 0 13.679a9.673 9.673 0 01-13.683 0 9.677 9.677 0 01-2.105-10.521L68.574 47.933l-.002 34.341a9.708 9.708 0 012.559 1.828c3.778 3.777 3.778 9.898 0 13.683-3.779 3.777-9.904 3.777-13.679 0-3.778-3.784-3.778-9.905 0-13.683a9.65 9.65 0 013.167-2.11V47.333a9.581 9.581 0 01-3.167-2.111c-2.862-2.86-3.551-7.06-2.083-10.576L41.056 20.333 3.264 58.123a8.133 8.133 0 000 11.5l55.117 55.114c3.174 3.174 8.32 3.174 11.499 0l54.858-54.858a8.135 8.135 0 00-.001-11.501z"/></symbol></defs>
<rect x="0" y="0" width="422" height="512" fill="#FFFFFF"/>
<g id="grupos">
<rect x="116.00" y="10.00" width="256.00" height="80.00" rx="3" fill="#FFFFFF" stroke="#7A7A7A" stroke-width="0.6"/>
<rect x="116.00" y="108.00" width="256.00" height="80.00" rx="3" fill="#FFFFFF" stroke="#7A7A7A" stroke-width="0.6"/>
<rect x="116.00" y="206.00" width="256.00" height="80.00" rx="3" fill="#FFFFFF" stroke="#7A7A7A" stroke-width="0.6"/>
<rect x="116.00" y="304.00" width="256.00" height="80.00" rx="3" fill="#FFFFFF" stroke="#7A7A7A" stroke-width="0.6"/>
<rect x="116.00" y="426.00" width="256.00" height="80.00" rx="3" fill="#FFFFFF" stroke="#7A7A7A" stroke-width="0.6" stroke-dasharray="3.5 2.5"/>
</g>
<g id="flechas">
<path d="M60.00,230.00 L96.00,230.00" fill="none" stroke="#2B2B2B" stroke-width="1.0" stroke-linejoin="miter"/>
<path d="M96.00,50.00 L96.00,466.00" fill="none" stroke="#2B2B2B" stroke-width="1.0" stroke-linejoin="miter"/>
<path d="M96.00,50.00 L116.00,50.00" fill="none" stroke="#2B2B2B" stroke-width="1.0" stroke-linejoin="miter" marker-end="url(#fin-n)"/>
<path d="M96.00,148.00 L116.00,148.00" fill="none" stroke="#2B2B2B" stroke-width="1.0" stroke-linejoin="miter" marker-end="url(#fin-n)"/>
<path d="M96.00,246.00 L116.00,246.00" fill="none" stroke="#2B2B2B" stroke-width="1.0" stroke-linejoin="miter" marker-end="url(#fin-n)"/>
<path d="M96.00,344.00 L116.00,344.00" fill="none" stroke="#2B2B2B" stroke-width="1.0" stroke-linejoin="miter" marker-end="url(#fin-n)"/>
<path d="M96.00,466.00 L116.00,466.00" fill="none" stroke="#2B2B2B" stroke-width="1.0" stroke-linejoin="miter" marker-end="url(#fin-n)"/>
<path d="M372.00,66.00 L396.00,66.00 L396.00,130.00 L372.00,130.00" fill="none" stroke="#2B2B2B" stroke-width="1.0" stroke-linejoin="miter" marker-end="url(#fin-n)"/>
<path d="M372.00,164.00 L396.00,164.00 L396.00,228.00 L372.00,228.00" fill="none" stroke="#2B2B2B" stroke-width="1.0" stroke-linejoin="miter" marker-end="url(#fin-n)"/>
<path d="M372.00,262.00 L396.00,262.00 L396.00,326.00 L372.00,326.00" fill="none" stroke="#2B2B2B" stroke-width="1.0" stroke-linejoin="miter" marker-end="url(#fin-n)"/>
<path d="M244.00,384.00 L244.00,426.00" fill="none" stroke="#2B2B2B" stroke-width="1.0" stroke-linejoin="miter" stroke-dasharray="3.5 2.5" marker-end="url(#fin-n)"/>
</g>
<g id="iconos">
<use href="#ic-az-subscription" x="124.00" y="14.50" width="13.00" height="13.00"/>
<use href="#ic-az-aks" x="140.00" y="36.00" width="16.00" height="16.00"/>
<use href="#ic-az-postgres" x="204.00" y="36.00" width="16.00" height="16.00"/>
<use href="#ic-az-iothub" x="268.00" y="36.00" width="16.00" height="16.00"/>
<use href="#ic-az-eventhubs" x="332.00" y="36.00" width="16.00" height="16.00"/>
<rect x="172.36" y="71.00" width="60.82" height="14.00" rx="3" fill="#FFFFFF" stroke="#8C8C8C" stroke-width="0.6"/>
<text x="202.77" y="81.00" font-size="9" font-family="IBM Plex Sans" text-anchor="middle" fill="#000000">Chile Central</text>
<rect x="239.18" y="71.00" width="76.46" height="14.00" rx="3" fill="#FFFFFF" stroke="#8C8C8C" stroke-width="0.6"/>
<text x="277.41" y="81.00" font-size="9" font-family="IBM Plex Sans" text-anchor="middle" fill="#000000">Niveles menores</text>
<use href="#ic-az-subscription" x="124.00" y="112.50" width="13.00" height="13.00"/>
<use href="#ic-az-aks" x="140.00" y="134.00" width="16.00" height="16.00"/>
<use href="#ic-az-postgres" x="204.00" y="134.00" width="16.00" height="16.00"/>
<use href="#ic-az-iothub" x="268.00" y="134.00" width="16.00" height="16.00"/>
<use href="#ic-az-eventhubs" x="332.00" y="134.00" width="16.00" height="16.00"/>
<rect x="172.36" y="169.00" width="60.82" height="14.00" rx="3" fill="#FFFFFF" stroke="#8C8C8C" stroke-width="0.6"/>
<text x="202.77" y="179.00" font-size="9" font-family="IBM Plex Sans" text-anchor="middle" fill="#000000">Chile Central</text>
<rect x="239.18" y="169.00" width="76.46" height="14.00" rx="3" fill="#FFFFFF" stroke="#8C8C8C" stroke-width="0.6"/>
<text x="277.41" y="179.00" font-size="9" font-family="IBM Plex Sans" text-anchor="middle" fill="#000000">Niveles menores</text>
<use href="#ic-az-subscription" x="124.00" y="210.50" width="13.00" height="13.00"/>
<use href="#ic-az-aks" x="140.00" y="232.00" width="16.00" height="16.00"/>
<use href="#ic-az-postgres" x="204.00" y="232.00" width="16.00" height="16.00"/>
<use href="#ic-az-iothub" x="268.00" y="232.00" width="16.00" height="16.00"/>
<use href="#ic-az-eventhubs" x="332.00" y="232.00" width="16.00" height="16.00"/>
<rect x="148.81" y="267.00" width="60.82" height="14.00" rx="3" fill="#FFFFFF" stroke="#8C8C8C" stroke-width="0.6"/>
<text x="179.22" y="277.00" font-size="9" font-family="IBM Plex Sans" text-anchor="middle" fill="#000000">Chile Central</text>
<rect x="215.64" y="267.00" width="123.55" height="14.00" rx="3" fill="#FFFFFF" stroke="#8C8C8C" stroke-width="0.6"/>
<text x="277.41" y="277.00" font-size="9" font-family="IBM Plex Sans" text-anchor="middle" fill="#000000">Pruebas de carga 1,5 × peak</text>
<use href="#ic-az-subscription" x="124.00" y="308.50" width="13.00" height="13.00"/>
<use href="#ic-az-aks" x="140.00" y="330.00" width="16.00" height="16.00"/>
<use href="#ic-az-postgres" x="204.00" y="330.00" width="16.00" height="16.00"/>
<use href="#ic-az-iothub" x="268.00" y="330.00" width="16.00" height="16.00"/>
<use href="#ic-az-eventhubs" x="332.00" y="330.00" width="16.00" height="16.00"/>
<rect x="182.95" y="365.00" width="36.70" height="14.00" rx="3" fill="#FFFFFF" stroke="#8C8C8C" stroke-width="0.6"/>
<text x="201.30" y="375.00" font-size="9" font-family="IBM Plex Sans" text-anchor="middle" fill="#000000">Zona 1</text>
<rect x="225.65" y="365.00" width="36.70" height="14.00" rx="3" fill="#FFFFFF" stroke="#8C8C8C" stroke-width="0.6"/>
<text x="244.00" y="375.00" font-size="9" font-family="IBM Plex Sans" text-anchor="middle" fill="#000000">Zona 2</text>
<rect x="268.35" y="365.00" width="36.70" height="14.00" rx="3" fill="#FFFFFF" stroke="#8C8C8C" stroke-width="0.6"/>
<text x="286.70" y="375.00" font-size="9" font-family="IBM Plex Sans" text-anchor="middle" fill="#000000">Zona 3</text>
<use href="#ic-az-subscription" x="124.00" y="430.50" width="13.00" height="13.00"/>
<use href="#ic-az-aks" x="140.00" y="452.00" width="16.00" height="16.00"/>
<use href="#ic-az-postgres" x="204.00" y="452.00" width="16.00" height="16.00"/>
<use href="#ic-az-iothub" x="268.00" y="452.00" width="16.00" height="16.00"/>
<use href="#ic-az-eventhubs" x="332.00" y="452.00" width="16.00" height="16.00"/>
<rect x="187.64" y="487.00" width="57.64" height="14.00" rx="3" fill="#FFFFFF" stroke="#8C8C8C" stroke-width="0.6"/>
<text x="216.46" y="497.00" font-size="9" font-family="IBM Plex Sans" text-anchor="middle" fill="#000000">Brazil South</text>
<rect x="251.28" y="487.00" width="49.08" height="14.00" rx="3" fill="#FFFFFF" stroke="#8C8C8C" stroke-width="0.6"/>
<text x="275.82" y="497.00" font-size="9" font-family="IBM Plex Sans" text-anchor="middle" fill="#000000">En espera</text>
<use href="#ic-dev-git" x="32.00" y="216.00" width="28.00" height="28.00"/>
<rect x="372.59" y="93.80" width="46.82" height="9.90" fill="#FFFFFF"/>
<rect x="372.59" y="191.80" width="46.82" height="9.90" fill="#FFFFFF"/>
<rect x="372.59" y="289.80" width="46.82" height="9.90" fill="#FFFFFF"/>
<rect x="206.69" y="400.80" width="74.62" height="9.90" fill="#FFFFFF"/>
</g>
<g id="textos">
<text x="141.00" y="25.00" font-size="10" font-family="IBM Plex Sans" font-weight="600" text-anchor="start" fill="#000000">Desarrollo</text>
<text x="195.05" y="25.00" font-size="9" font-family="IBM Plex Sans" text-anchor="start" fill="#000000">10.14.0.0/20</text>
<text x="148.00" y="63.00" font-size="9" font-family="IBM Plex Sans" text-anchor="middle" fill="#000000">AKS</text>
<text x="212.00" y="63.00" font-size="9" font-family="IBM Plex Sans" text-anchor="middle" fill="#000000">PostgreSQL</text>
<text x="276.00" y="63.00" font-size="9" font-family="IBM Plex Sans" text-anchor="middle" fill="#000000">IoT Hub</text>
<text x="340.00" y="63.00" font-size="9" font-family="IBM Plex Sans" text-anchor="middle" fill="#000000">Event Hubs</text>
<text x="141.00" y="123.00" font-size="10" font-family="IBM Plex Sans" font-weight="600" text-anchor="start" fill="#000000">QA</text>
<text x="160.84" y="123.00" font-size="9" font-family="IBM Plex Sans" text-anchor="start" fill="#000000">10.13.0.0/20</text>
<text x="148.00" y="161.00" font-size="9" font-family="IBM Plex Sans" text-anchor="middle" fill="#000000">AKS</text>
<text x="212.00" y="161.00" font-size="9" font-family="IBM Plex Sans" text-anchor="middle" fill="#000000">PostgreSQL</text>
<text x="276.00" y="161.00" font-size="9" font-family="IBM Plex Sans" text-anchor="middle" fill="#000000">IoT Hub</text>
<text x="340.00" y="161.00" font-size="9" font-family="IBM Plex Sans" text-anchor="middle" fill="#000000">Event Hubs</text>
<text x="141.00" y="221.00" font-size="10" font-family="IBM Plex Sans" font-weight="600" text-anchor="start" fill="#000000">Preproducción</text>
<text x="214.89" y="221.00" font-size="9" font-family="IBM Plex Sans" text-anchor="start" fill="#000000">10.12.0.0/20</text>
<text x="148.00" y="259.00" font-size="9" font-family="IBM Plex Sans" text-anchor="middle" fill="#000000">AKS</text>
<text x="212.00" y="259.00" font-size="9" font-family="IBM Plex Sans" text-anchor="middle" fill="#000000">PostgreSQL</text>
<text x="276.00" y="259.00" font-size="9" font-family="IBM Plex Sans" text-anchor="middle" fill="#000000">IoT Hub</text>
<text x="340.00" y="259.00" font-size="9" font-family="IBM Plex Sans" text-anchor="middle" fill="#000000">Event Hubs</text>
<text x="141.00" y="319.00" font-size="10" font-family="IBM Plex Sans" font-weight="600" text-anchor="start" fill="#000000">Producción</text>
<text x="199.38" y="319.00" font-size="9" font-family="IBM Plex Sans" text-anchor="start" fill="#000000">10.11.0.0/20</text>
<text x="148.00" y="357.00" font-size="9" font-family="IBM Plex Sans" text-anchor="middle" fill="#000000">AKS</text>
<text x="212.00" y="357.00" font-size="9" font-family="IBM Plex Sans" text-anchor="middle" fill="#000000">PostgreSQL</text>
<text x="276.00" y="357.00" font-size="9" font-family="IBM Plex Sans" text-anchor="middle" fill="#000000">IoT Hub</text>
<text x="340.00" y="357.00" font-size="9" font-family="IBM Plex Sans" text-anchor="middle" fill="#000000">Event Hubs</text>
<text x="141.00" y="441.00" font-size="10" font-family="IBM Plex Sans" font-weight="600" text-anchor="start" fill="#000000">Recuperación</text>
<text x="210.73" y="441.00" font-size="9" font-family="IBM Plex Sans" text-anchor="start" fill="#000000">10.21.0.0/20</text>
<text x="148.00" y="479.00" font-size="9" font-family="IBM Plex Sans" text-anchor="middle" fill="#000000">AKS</text>
<text x="212.00" y="479.00" font-size="9" font-family="IBM Plex Sans" text-anchor="middle" fill="#000000">PostgreSQL</text>
<text x="276.00" y="479.00" font-size="9" font-family="IBM Plex Sans" text-anchor="middle" fill="#000000">IoT Hub</text>
<text x="340.00" y="479.00" font-size="9" font-family="IBM Plex Sans" text-anchor="middle" fill="#000000">Event Hubs</text>
<text x="46.00" y="255.00" font-size="10" font-family="IBM Plex Sans" text-anchor="middle" fill="#000000">Repositorio</text>
<text x="46.00" y="267.00" font-size="10" font-family="IBM Plex Sans" text-anchor="middle" fill="#000000">del mandante</text>
<text x="46.00" y="278.50" font-size="9" font-family="IBM Plex Sans" text-anchor="middle" fill="#000000">Código de</text>
<text x="46.00" y="289.00" font-size="9" font-family="IBM Plex Sans" text-anchor="middle" fill="#000000">infraestructura</text>
<text x="396.00" y="101.00" font-size="9" font-family="IBM Plex Sans" text-anchor="middle" fill="#000000">Promoción</text>
<text x="396.00" y="199.00" font-size="9" font-family="IBM Plex Sans" text-anchor="middle" fill="#000000">Promoción</text>
<text x="396.00" y="297.00" font-size="9" font-family="IBM Plex Sans" text-anchor="middle" fill="#000000">Promoción</text>
<text x="244.00" y="408.00" font-size="9" font-family="IBM Plex Sans" text-anchor="middle" fill="#000000">Réplica asíncrona</text>
</g>
</svg>
