<svg xmlns="http://www.w3.org/2000/svg" width="48" height="48" viewBox="0 0 48 48"><rect x="4" y="15" width="40" height="22" rx="2.5" fill="#433B6B"/><rect x="6.2" y="10" width="2.2" height="6.5" rx="0.8" fill="#9B9B9B"/><rect x="10.1" y="10" width="2.2" height="6.5" rx="0.8" fill="#9B9B9B"/><rect x="14.0" y="10" width="2.2" height="6.5" rx="0.8" fill="#9B9B9B"/><rect x="17.9" y="10" width="2.2" height="6.5" rx="0.8" fill="#9B9B9B"/><rect x="21.8" y="10" width="2.2" height="6.5" rx="0.8" fill="#9B9B9B"/><rect x="25.7" y="10" width="2.2" height="6.5" rx="0.8" fill="#9B9B9B"/><rect x="29.599999999999998" y="10" width="2.2" height="6.5" rx="0.8" fill="#9B9B9B"/><rect x="33.5" y="10" width="2.2" height="6.5" rx="0.8" fill="#9B9B9B"/><rect x="37.4" y="10" width="2.2" height="6.5" rx="0.8" fill="#9B9B9B"/><rect x="41.300000000000004" y="10" width="2.2" height="6.5" rx="0.8" fill="#9B9B9B"/><rect x="8" y="27.5" width="4.5" height="3.5" rx="0.6" fill="#D3D3D3"/><rect x="14.5" y="27.5" width="4.5" height="3.5" rx="0.6" fill="#D3D3D3"/><rect x="21" y="27.5" width="6" height="3.5" rx="0.6" fill="#D3D3D3"/><circle cx="38.5" cy="29.2" r="1.4" fill="#00D26A"/></svg>
